<?xml version="1.0" encoding="UTF-8"?>
<svg width="252px" height="802px" viewBox="0 0 252 802" version="1.1" xmlns="http://www.w3.org/2000/svg" xmlns:xlink="http://www.w3.org/1999/xlink">
    <!-- Generator: Sketch 51.3 (57544) - http://www.bohemiancoding.com/sketch -->
    <title>slogan_02</title>
    <desc>Created with Sketch.</desc>
    <defs></defs>
    <g id="Page-1" stroke="none" stroke-width="1" fill="none" fill-rule="evenodd">
        <g id="slogan_02" transform="translate(126.000000, 401.000000) rotate(90.000000) translate(-126.000000, -401.000000) translate(-275.000000, 275.000000)" fill="#000000" fill-rule="nonzero">
            <path d="M5,248.868613 L5,155.951825 L27.4233577,155.951825 L27.4233577,248.868613 L5,248.868613 Z M5,150.065693 L5,131.145985 L27.4233577,131.145985 L27.4233577,150.065693 L5,150.065693 Z M80.6788321,248.868613 L63.1605839,200.938686 L62.319708,200.938686 L62.319708,248.868613 L41.4379562,248.868613 L41.4379562,155.951825 L65.1226277,155.951825 L81.8,199.256934 L82.6408759,199.256934 L82.6408759,155.951825 L103.382482,155.951825 L103.382482,248.868613 L80.6788321,248.868613 Z M112.491971,177.674453 L112.491971,155.951825 L167.148905,155.951825 L167.148905,177.674453 L151.312409,177.674453 L151.312409,248.868613 L128.889051,248.868613 L128.889051,177.674453 L112.491971,177.674453 Z M176.258394,248.868613 L176.258394,155.951825 L223.207299,155.951825 L223.207299,178.235036 L198.681752,178.235036 L198.681752,190.007299 L222.086131,190.007299 L222.086131,211.029197 L198.681752,211.029197 L198.681752,226.445255 L223.767883,226.445255 L223.767883,248.868613 L176.258394,248.868613 Z M258.10365,248.868613 L235.680292,248.868613 L235.680292,155.951825 L262.728467,155.951825 C284.310949,155.951825 291.037956,168.424818 291.037956,180.477372 C291.037956,190.988321 284.591241,197.855474 278.705109,201.218978 L278.705109,201.779562 C285.151825,203.60146 292.018978,209.347445 292.018978,222.661314 L292.018978,248.868613 L269.59562,248.868613 L269.59562,223.221898 C269.59562,217.055474 267.633577,213.972263 262.027737,213.972263 L258.10365,213.972263 L258.10365,248.868613 Z M258.10365,175.852555 L258.10365,193.791241 L261.327007,193.791241 C266.932847,193.791241 269.175182,189.867153 269.175182,184.261314 C269.175182,178.655474 266.792701,175.852555 261.747445,175.852555 L258.10365,175.852555 Z M342.051095,248.868613 L324.532847,200.938686 L323.691971,200.938686 L323.691971,248.868613 L302.810219,248.868613 L302.810219,155.951825 L326.494891,155.951825 L343.172263,199.256934 L344.013139,199.256934 L344.013139,155.951825 L364.754745,155.951825 L364.754745,248.868613 L342.051095,248.868613 Z M372.322628,248.868613 L394.185401,155.951825 L420.252555,155.951825 L441.554745,248.868613 L418.570803,248.868613 L415.347445,231.630657 L397.829197,231.630657 L394.605839,248.868613 L372.322628,248.868613 Z M407.218978,183.981022 L406.378102,183.981022 L401.613139,212.150365 L411.843796,212.150365 L407.218978,183.981022 Z M439.312409,177.674453 L439.312409,155.951825 L493.969343,155.951825 L493.969343,177.674453 L478.132847,177.674453 L478.132847,248.868613 L455.709489,248.868613 L455.709489,177.674453 L439.312409,177.674453 Z M503.078832,248.868613 L503.078832,155.951825 L525.50219,155.951825 L525.50219,248.868613 L503.078832,248.868613 Z M503.078832,150.065693 L503.078832,131.145985 L525.50219,131.145985 L525.50219,150.065693 L503.078832,150.065693 Z M537.694891,220.559124 L537.694891,184.40146 C537.694891,162.39854 552.129927,153.148905 567.545985,153.148905 C582.962044,153.148905 597.39708,162.39854 597.39708,184.261314 L597.39708,220.418978 C597.39708,242.842336 582.962044,251.671533 567.545985,251.671533 C552.129927,251.671533 537.694891,243.262774 537.694891,220.559124 Z M574.973723,220.138686 L574.973723,184.962044 C574.973723,178.655474 571.610219,176.132847 567.545985,176.132847 C563.481752,176.132847 560.118248,178.655474 560.118248,184.962044 L560.118248,220.138686 C560.118248,226.305109 563.481752,228.827737 567.545985,228.827737 C571.610219,228.827737 574.973723,226.305109 574.973723,220.138686 Z M648.830657,248.868613 L631.312409,200.938686 L630.471533,200.938686 L630.471533,248.868613 L609.589781,248.868613 L609.589781,155.951825 L633.274453,155.951825 L649.951825,199.256934 L650.792701,199.256934 L650.792701,155.951825 L671.534307,155.951825 L671.534307,248.868613 L648.830657,248.868613 Z M679.10219,248.868613 L700.964964,155.951825 L727.032117,155.951825 L748.334307,248.868613 L725.350365,248.868613 L722.127007,231.630657 L704.608759,231.630657 L701.385401,248.868613 L679.10219,248.868613 Z M713.99854,183.981022 L713.157664,183.981022 L708.392701,212.150365 L718.623358,212.150365 L713.99854,183.981022 Z M755.90219,248.868613 L755.90219,155.951825 L778.045255,155.951825 L778.045255,226.445255 L801.029197,226.445255 L801.029197,248.868613 L755.90219,248.868613 Z" id="International"></path>
            <path d="M31.9023247,98.5445594 L19.8688306,89.7633611 C4.42042608,78.3803261 0.517671252,68.1355947 0.517671252,55.1264119 C0.517671252,36.9135561 16.4539201,25.5305212 33.0406282,25.5305212 C49.1394918,25.5305212 65.4009703,34.3117195 64.5878963,63.7449955 L41.4965969,63.7449955 C41.8218265,53.9881085 39.5452195,48.6218206 33.5284725,48.6218206 C28.1621846,48.6218206 26.0481924,51.5488867 26.0481924,55.6142563 C26.0481924,58.3787076 27.1864959,62.2814625 32.5527838,66.3468321 L46.8628848,77.0794079 C62.1486746,88.6250576 65.0757407,98.2193298 65.0757407,108.626676 C65.0757407,127.977835 50.1151805,139.848715 32.390169,139.848715 C15.1530019,139.848715 -0.783247024,130.742287 0.0298268982,101.796855 L23.1211263,101.796855 C22.7958967,112.041587 25.5603481,116.269571 31.4144803,116.269571 C36.4555386,116.269571 38.406916,113.342505 38.406916,109.277135 C38.406916,106.837913 38.0816865,103.097773 31.9023247,98.5445594 Z M77.1092348,136.596419 L77.1092348,28.7828169 L103.1276,28.7828169 L103.1276,136.596419 L77.1092348,136.596419 Z M77.1092348,21.9529959 L77.1092348,0 L103.1276,0 L103.1276,21.9529959 L77.1092348,21.9529959 Z M113.697561,53.9881085 L113.697561,28.7828169 L177.117327,28.7828169 L177.117327,53.9881085 L158.741857,53.9881085 L158.741857,136.596419 L132.723491,136.596419 L132.723491,53.9881085 L113.697561,53.9881085 Z M186.06114,102.609929 L186.06114,28.7828169 L212.079506,28.7828169 L212.079506,102.935159 C212.079506,110.578053 215.169187,113.17989 219.722401,113.17989 C224.275615,113.17989 227.52791,110.578053 227.52791,102.935159 L227.52791,28.7828169 L253.546276,28.7828169 L253.546276,102.609929 C253.546276,131.230131 238.260486,139.848715 219.885016,139.848715 C201.509545,139.848715 186.06114,131.230131 186.06114,102.609929 Z M259.888253,136.596419 L285.256159,28.7828169 L315.502509,28.7828169 L340.219956,136.596419 L313.551131,136.596419 L309.810991,116.5948 L289.484143,116.5948 L285.744003,136.596419 L259.888253,136.596419 Z M300.379334,61.3057738 L299.403645,61.3057738 L293.874743,93.9913454 L305.745622,93.9913454 L300.379334,61.3057738 Z M337.61812,53.9881085 L337.61812,28.7828169 L401.037886,28.7828169 L401.037886,53.9881085 L382.662415,53.9881085 L382.662415,136.596419 L356.644049,136.596419 L356.644049,53.9881085 L337.61812,53.9881085 Z M411.607846,136.596419 L411.607846,28.7828169 L437.626212,28.7828169 L437.626212,136.596419 L411.607846,136.596419 Z M411.607846,21.9529959 L411.607846,0 L437.626212,0 L437.626212,21.9529959 L411.607846,21.9529959 Z M451.773698,103.748233 L451.773698,61.7936181 C451.773698,36.2630969 468.523021,25.5305212 486.410647,25.5305212 C504.298274,25.5305212 521.047596,36.2630969 521.047596,61.6310033 L521.047596,103.585618 C521.047596,129.603983 504.298274,139.848715 486.410647,139.848715 C468.523021,139.848715 451.773698,130.091828 451.773698,103.748233 Z M495.029231,103.260388 L495.029231,62.4440773 C495.029231,55.1264119 491.126476,52.1993458 486.410647,52.1993458 C481.694819,52.1993458 477.792064,55.1264119 477.792064,62.4440773 L477.792064,103.260388 C477.792064,110.415439 481.694819,113.342505 486.410647,113.342505 C491.126476,113.342505 495.029231,110.415439 495.029231,103.260388 Z M580.727222,136.596419 L560.400374,80.9821627 L559.424686,80.9821627 L559.424686,136.596419 L535.195083,136.596419 L535.195083,28.7828169 L562.676981,28.7828169 L582.028141,79.0307853 L583.003829,79.0307853 L583.003829,28.7828169 L607.070817,28.7828169 L607.070817,136.596419 L580.727222,136.596419 Z M623.332296,136.596419 L623.332296,28.7828169 L649.350661,28.7828169 L649.350661,136.596419 L623.332296,136.596419 Z M623.332296,21.9529959 L623.332296,0 L649.350661,0 L649.350661,21.9529959 L623.332296,21.9529959 Z M693.907112,98.5445594 L681.873618,89.7633611 C666.425214,78.3803261 662.522459,68.1355947 662.522459,55.1264119 C662.522459,36.9135561 678.458708,25.5305212 695.045416,25.5305212 C711.14428,25.5305212 727.405758,34.3117195 726.592684,63.7449955 L703.501385,63.7449955 C703.826614,53.9881085 701.550007,48.6218206 695.53326,48.6218206 C690.166972,48.6218206 688.05298,51.5488867 688.05298,55.6142563 C688.05298,58.3787076 689.191284,62.2814625 694.557572,66.3468321 L708.867673,77.0794079 C724.153462,88.6250576 727.080528,98.2193298 727.080528,108.626676 C727.080528,127.977835 712.119968,139.848715 694.394957,139.848715 C677.15779,139.848715 661.221541,130.742287 662.034615,101.796855 L685.125914,101.796855 C684.800684,112.041587 687.565136,116.269571 693.419268,116.269571 C698.460326,116.269571 700.411704,113.342505 700.411704,109.277135 C700.411704,106.837913 700.086474,103.097773 693.907112,98.5445594 Z M732.609431,53.9881085 L732.609431,28.7828169 L796.029197,28.7828169 L796.029197,53.9881085 L777.653726,53.9881085 L777.653726,136.596419 L751.635361,136.596419 L751.635361,53.9881085 L732.609431,53.9881085 Z" id="Situationist"></path>
        </g>
    </g>
</svg>